<svg width="687" height="517" viewBox="0 0 687 517" fill="none" xmlns="http://www.w3.org/2000/svg">
<path d="M117.725 489.302C117.725 489.302 32.1762 428.38 7.54885 324.686C-17.0785 220.991 20.511 95.2606 91.801 31.7484C163.091 -31.7652 291.414 11.01 348.446 64.1537C405.479 117.297 405.479 117.297 405.479 117.297C405.479 117.297 459.919 147.111 531.209 144.517C602.499 141.925 666.013 239.139 682.864 315.613C699.715 392.087 659.532 493.191 659.532 493.191L117.725 489.302Z" fill="#DDECFF"/>
<path d="M78.8401 504.857C78.8401 504.857 19.2154 472.451 3.66114 397.272C-11.8931 322.093 55.508 253.396 61.989 215.806C68.4701 178.217 54.2127 131.554 113.836 95.2613C173.461 58.9686 279.748 71.9292 319.93 62.856C360.111 53.7828 406.774 -8.43402 487.139 5.82336C567.502 20.0823 645.273 62.856 649.162 156.181C653.051 249.507 623.238 252.099 653.051 302.65C682.862 353.202 694.529 388.199 680.27 440.046C666.013 491.893 636.2 506.152 636.2 506.152L78.8401 504.857Z" fill="#DDECFF"/>
<path d="M203.336 488.006C199.627 484.117 145.229 375.238 205.809 275.432C266.389 175.625 418.459 187.29 479.039 226.177C539.619 265.063 569.292 315.613 575.474 368.758C581.655 421.902 540.857 504.859 540.857 504.859L203.336 488.006Z" fill="#DDECFF"/>
<path d="M629.882 304.704H559.995C555.671 304.704 552.164 301.197 552.164 296.873V261.984C552.164 257.658 555.671 254.153 559.995 254.153H629.882C634.206 254.153 637.713 257.658 637.713 261.984V296.873C637.713 301.197 634.208 304.704 629.882 304.704Z" fill="#60A8FF"/>
<path d="M594.94 324.471L606.015 298.223H583.865L594.94 324.471Z" fill="#60A8FF"/>
<path d="M594.674 270.746H614.679V273.673L624.487 268.018L614.679 262.363V265.291H594.674V270.746Z" fill="#8627A8"/>
<path d="M624.487 282.248H604.482V279.322L594.674 284.977L604.482 290.631V287.705H624.487V282.248Z" fill="white"/>
<path d="M582.397 287.396L581.444 287.742C581.444 287.742 578.476 284.354 576.935 280.663C575.394 276.971 575.341 272.463 575.341 272.463L576.036 272.172L571.806 262.048C571.051 262.637 570.333 263.395 569.752 264.377C567.358 268.423 567.596 274.631 570.003 280.696C572.41 286.76 574.987 292.171 579.684 295.573C582.456 297.581 584.832 297.932 586.677 297.641L582.397 287.396Z" fill="#8627A8"/>
<path d="M585.435 286.205L584.119 286.683L588.45 297.048C588.938 296.888 589.377 296.691 589.759 296.483C590.877 295.87 591.368 294.525 590.898 293.341L588.636 287.643C588.133 286.376 586.716 285.74 585.435 286.205Z" fill="#8627A8"/>
<path d="M575.115 260.274C574.582 260.467 574.003 260.725 573.42 261.07L577.74 271.41L579.195 270.803C580.455 270.276 581.066 268.838 580.57 267.565L578.299 261.736C577.804 260.47 576.393 259.814 575.115 260.274Z" fill="#8627A8"/>
<path d="M183.129 470.506V353.848C183.129 353.848 181.832 322.416 198.359 313.343C214.886 304.269 284.557 309.129 284.557 309.129V470.504H183.129V470.506Z" fill="#1C83FF"/>
<path d="M306.32 199.926C306.32 199.926 302.107 235.248 300.487 238.164C298.868 241.08 298.868 241.08 298.868 241.08L290.766 246.589C290.766 246.589 306.32 268.624 325.439 272.189C344.558 275.753 342.937 264.412 342.937 264.412L340.02 258.255L343.909 224.555C343.909 224.555 309.236 208.676 306.32 199.926Z" fill="#FF9D8C"/>
<path d="M280.719 249.506L293.357 243.997C293.357 243.997 301.457 257.284 320.252 265.06C339.047 272.836 339.371 268.3 340.343 265.06C341.316 261.819 340.019 258.255 340.019 258.255L341.41 246.909L348.926 249.415L375.017 460.461L307.94 463.701L280.719 249.506Z" fill="white"/>
<path d="M342.613 247.128C342.613 247.128 347.149 257.606 351.362 282.234C355.575 306.861 359.463 348.339 360.435 376.856C361.408 405.372 362.055 470.505 362.055 470.505C362.055 470.505 445.659 470.505 446.631 470.505C447.604 470.505 453.436 438.424 453.436 438.424C453.436 438.424 416.495 406.775 414.55 401.591C413.253 398.134 413.902 334.082 408.393 304.593C402.885 275.104 395.755 269.163 380.85 261.819C365.444 254.228 342.613 247.128 342.613 247.128Z" fill="#8627A8"/>
<path d="M386.682 433.376C386.249 433.376 385.898 433.025 385.898 432.593C385.898 430.276 385.486 397.359 385.089 365.525C384.689 333.687 384.277 300.765 384.277 298.437C384.277 298.005 384.628 297.654 385.06 297.654C385.493 297.654 385.844 298.005 385.844 298.437C385.844 300.754 386.255 333.671 386.653 365.505C387.053 397.343 387.465 430.265 387.465 432.593C387.465 433.027 387.115 433.376 386.682 433.376Z" fill="#8593B6"/>
<path d="M218.178 425.465L217.529 470.508H316.04C316.04 470.508 320.254 432.27 318.632 428.705C317.013 425.141 218.178 425.465 218.178 425.465Z" fill="#8627A8"/>
<path d="M327.816 237.193C331.83 240.429 337.321 243.026 341.597 244.597L343.909 224.555C343.909 224.555 317.864 212.625 309.027 203.748C310.875 213.833 315.418 227.198 327.816 237.193Z" fill="#8E9BBB"/>
<path d="M374.371 134.145C374.371 134.145 381.176 145.81 382.472 160.069C383.769 174.326 382.472 210.945 370.806 226.499C359.141 242.053 334.838 237.517 323.82 228.12C313.708 219.495 303.728 209.974 301.136 191.179C298.544 172.384 306.644 136.738 329.652 129.286C352.659 121.831 374.371 134.145 374.371 134.145Z" fill="#FF9D8C"/>
<path d="M403.602 450.136C403.602 450.136 402.459 450.136 400.72 450.089C400.313 450.073 399.859 450.089 399.389 450.073C397.713 450.026 395.677 449.979 393.625 449.916C393.171 449.901 392.701 449.885 392.247 449.869C390.211 449.822 388.473 450.073 386.844 449.979H386.797C386.452 449.963 385.951 450.01 385.544 450.026C385.34 450.042 385.152 450.057 385.027 450.042C384.087 449.869 383.899 449.65 382.881 449.196C381.566 448.601 363.758 444.623 349.27 444.717C334.798 444.779 321.814 445.766 319.7 443.996C317.569 442.195 316.285 424.011 328.643 422.821L343.835 428.584C343.835 428.584 378.527 424.465 391.245 433.847C403.994 443.229 403.602 450.136 403.602 450.136Z" fill="#FF9D8C"/>
<path d="M386.798 449.979C386.454 449.963 385.953 450.01 385.545 450.026C385.232 449.525 384.574 448.617 384.214 448.241C380.299 444.247 370.839 441.662 367.408 440.832C367.095 440.754 366.892 440.441 366.97 440.128C367.033 439.814 367.361 439.626 367.69 439.689C372.687 440.895 383.29 443.98 386.297 449.039C386.391 449.18 386.642 449.666 386.798 449.979Z" fill="#8627A8"/>
<path d="M393.629 449.915C393.175 449.904 392.705 449.893 392.253 449.866C387.978 442.07 380.982 439.832 372.339 437.052L371.827 436.882C371.531 436.781 371.353 436.449 371.455 436.137C371.556 435.841 371.873 435.661 372.2 435.764L372.698 435.933C381.836 438.865 389.189 441.222 393.629 449.915Z" fill="#8627A8"/>
<path d="M400.721 450.087C400.314 450.078 399.86 450.082 399.39 450.07C396.796 444.618 388.215 435.493 376.861 433.367C376.534 433.313 376.321 433.01 376.376 432.681C376.446 432.37 376.749 432.158 377.062 432.213C388.758 434.411 398.192 443.961 400.721 450.087Z" fill="#8627A8"/>
<path d="M308.911 175.137C308.911 175.137 316.041 171.735 321.064 162.174C326.086 152.616 325.438 144.028 325.438 144.028C325.438 144.028 334.511 142.57 348.122 146.62C361.732 150.671 377.935 156.179 391.544 148.403C405.154 140.626 405.154 128.15 398.51 122.966C391.071 117.16 376.314 120.698 376.314 120.698C376.314 120.698 381.985 115.189 378.906 111.949C375.828 108.708 364.649 112.921 364.649 112.921C364.649 112.921 351.038 102.066 325.277 103.363C299.515 104.659 287.202 122.643 285.744 142.734C284.285 162.826 291.576 182.916 291.576 182.916L308.911 175.137Z" fill="#8627A8"/>
<path d="M361.177 180.005C359.717 183.604 359.753 187.782 359.385 191.602C359.098 194.573 358.553 198.037 361.275 200.044C362.575 201.002 368.727 203.586 365.564 205.68C364.358 206.479 362.336 206.26 360.964 206.197C360.018 206.153 359.062 206.114 358.118 206.044C357.101 205.967 356.105 205.662 355.089 205.657C354.494 205.654 354.307 206.448 354.793 206.752C356.429 207.776 358.827 208.092 360.735 208.166C362.641 208.24 363.936 208.152 365.654 207.3C366.71 206.777 367.733 206.034 367.902 204.78C368.092 203.367 367.031 202.1 365.968 201.311C364.743 200.402 363.239 199.979 362.002 199.093C360.287 197.865 360.428 195.796 360.549 193.88C360.838 189.273 361.897 184.746 362.309 180.159C362.37 179.457 361.399 179.457 361.177 180.005Z" fill="#8E9BBB"/>
<path d="M374.421 190.782C373.937 193.513 371.951 195.446 369.982 195.097C368.015 194.749 366.81 192.252 367.294 189.521C367.778 186.789 369.764 184.857 371.733 185.206C373.7 185.554 374.905 188.05 374.421 190.782Z" fill="#8627A8"/>
<path d="M349.628 188.618C349.19 191.565 347.113 193.697 344.991 193.382C342.869 193.066 341.503 190.42 341.941 187.474C342.38 184.527 344.457 182.395 346.579 182.71C348.701 183.025 350.067 185.671 349.628 188.618Z" fill="#8627A8"/>
<path d="M368.649 179.524C370.164 179.779 371.692 179.519 373.219 179.626C373.586 179.651 373.949 179.706 374.316 179.74C374.576 179.765 373.83 179.663 374.192 179.723C374.27 179.735 374.349 179.748 374.427 179.762C374.618 179.797 374.809 179.836 374.999 179.881C375.323 179.961 375.639 180.083 375.965 180.154C376.261 180.218 376.59 180.288 376.887 180.274C377.053 180.252 377.221 180.229 377.387 180.207C377.282 180.226 377.177 180.245 377.072 180.263C377.072 180.299 377.641 180.209 377.692 180.196C378.56 179.994 379.097 178.987 378.855 178.149C378.784 177.906 378.678 177.688 378.524 177.49C378.46 177.403 378.394 177.319 378.325 177.237C378.386 177.308 378.447 177.378 378.508 177.447C378.444 177.356 378.377 177.267 378.306 177.181C378.22 177.035 378.104 176.921 377.96 176.835C377.84 176.741 377.719 176.644 377.594 176.556C377.193 176.277 376.663 176.114 376.189 175.992C375.285 175.759 374.338 175.64 373.404 175.635C372.478 175.63 371.562 175.728 370.646 175.854C369.839 175.966 368.939 176.24 368.284 176.728C367.777 177.106 367.465 177.59 367.554 178.252C367.626 178.8 368.06 179.424 368.649 179.524Z" fill="#8627A8"/>
<path d="M351.366 175.188C351.161 175.065 350.951 174.959 350.733 174.86C350.548 174.776 350.047 174.514 350.426 174.721C350.288 174.646 350.15 174.571 350.009 174.498C349.381 174.182 348.73 173.971 348.052 173.797C346.573 173.419 345.016 173.324 343.5 173.484C341.882 173.654 340.405 174.046 339.005 174.89C338.808 175.009 338.604 175.127 338.438 175.291C338.327 175.432 338.217 175.573 338.111 175.717C338.142 175.67 338.172 175.623 338.203 175.576C337.771 175.878 337.52 176.375 337.523 176.896C337.527 177.399 337.788 177.82 338.225 178.063C338.755 178.358 339.256 178.217 339.799 178.076C339.527 178.076 339.253 178.076 338.98 178.076C339.43 178.146 339.746 178.163 340.2 178.063C340.216 178.06 340.637 177.955 340.36 178.013C340.1 178.068 340.8 177.958 340.877 177.947C340.966 177.935 341.453 177.886 340.938 177.936C341.033 177.927 341.127 177.914 341.221 177.903C341.466 177.874 341.71 177.844 341.956 177.824C343.026 177.737 344.091 177.69 345.164 177.654C346.158 177.622 347.171 177.614 348.164 177.658C348.59 177.676 349.015 177.69 349.441 177.701C349.681 177.708 349.579 177.745 349.414 177.694C349.502 177.722 349.593 177.737 349.681 177.762C349.858 177.811 350.031 177.869 350.204 177.935C350.894 178.198 351.723 177.7 351.98 177.064C352.26 176.375 352.024 175.579 351.366 175.188Z" fill="#8627A8"/>
<path d="M359.057 220.232C360.544 217.242 363.25 215.051 366.378 213.642C363.662 213.366 350.844 212.179 347.608 214.016C343.984 216.074 348.278 224.334 355.771 224.749C356.559 224.793 357.273 224.729 357.956 224.622C358.02 223.114 358.367 221.622 359.057 220.232Z" fill="#8627A8"/>
<path d="M299.84 202.842C299.84 202.842 301.137 207.865 308.589 213.697C316.042 219.53 326.843 223.797 326.843 223.797L327.708 220.016C327.708 220.016 316.528 215.154 311.344 209.809C306.16 204.461 305.511 201.545 305.511 201.545L299.84 202.842Z" fill="#DEE1EB"/>
<path d="M329.004 217.221C335.001 216.942 338.349 221.685 338.768 224.753C339.186 227.821 336.304 231.262 329.561 228.239C321.187 224.485 323.007 217.5 329.004 217.221Z" fill="#8627A8"/>
<path d="M304.537 165.738C304.537 165.738 307.128 147.116 319.606 134.469C343.423 110.327 363.676 111.785 363.676 111.785C363.676 111.785 363.513 108.383 355.898 105.79C348.749 103.356 345.528 104.656 345.528 104.656C345.528 104.656 325.924 106.277 309.397 124.584C292.87 142.893 291.088 166.224 291.088 166.224L304.537 165.738Z" fill="#DEE1EB"/>
<path d="M302.754 163.474C287.151 160.829 278.451 173.034 277.803 185.347C277.154 197.66 286.102 207.022 298.056 206.085C324.952 203.98 321.873 166.715 302.754 163.474Z" fill="white"/>
<path d="M294.983 194.118C290.866 194.118 287.384 192.049 285.393 188.403C283.262 184.499 283.44 179.692 285.849 176.158C286.032 175.892 286.397 175.823 286.665 176.003C286.933 176.187 287.002 176.551 286.82 176.819C284.657 179.992 284.502 184.318 286.425 187.839C288.25 191.182 291.469 193.074 295.284 192.937C298.849 192.842 301.87 191.211 303.792 188.345C305.984 185.075 306.489 180.556 305.076 176.838C303.674 173.15 299.831 170.633 296.335 171.09C296.02 171.132 295.718 170.907 295.676 170.586C295.633 170.265 295.859 169.97 296.18 169.926C300.268 169.381 304.559 172.175 306.172 176.42C307.715 180.484 307.164 185.423 304.766 188.998C302.626 192.19 299.27 194.006 295.314 194.112C295.203 194.117 295.093 194.118 294.983 194.118Z" fill="#818FB3"/>
<path d="M283.636 244.968C283.636 244.968 236.325 256.633 219.798 275.428C203.271 294.223 195.495 386.9 195.171 404.075C194.846 421.25 206.836 428.378 213.965 433.24C221.095 438.1 252.527 446.85 277.803 448.146C303.079 449.441 327.058 448.146 327.058 448.146C327.058 448.146 326.976 442.637 330.865 434.535C334.472 427.022 339.047 425.462 339.047 425.462L317.336 417.684C317.336 417.684 313.535 349.562 307.615 316.581C300.811 278.669 283.636 244.968 283.636 244.968Z" fill="#8627A8"/>
<path d="M362.057 406.803C361.95 406.803 361.842 406.781 361.74 406.736C361.344 406.56 361.166 406.098 361.341 405.703C365.773 395.701 370.367 376.067 372.953 362.292L373.166 361.179C373.949 357.127 374.923 352.087 372.98 348.61C371.988 346.835 369.749 342.985 367.595 339.284C365.36 335.442 363.25 331.812 362.665 330.73C361.523 328.614 365.116 322.963 370.319 315.211C371.724 313.116 372.937 311.308 373.645 310.084C375.5 306.876 374.266 303.938 372.836 300.534L372.349 299.363C371.053 296.183 369.579 292.998 368.157 289.917C367.576 288.658 366.994 287.398 366.42 286.131C365.661 284.455 364.896 282.753 364.123 281.028C359.543 270.821 354.808 260.265 348.745 250.069C348.523 249.698 348.647 249.217 349.018 248.996C349.389 248.775 349.87 248.897 350.092 249.269C356.201 259.543 360.956 270.139 365.553 280.388C366.325 282.111 367.088 283.812 367.847 285.486C368.42 286.748 369 288.004 369.581 289.261C371.013 292.357 372.491 295.56 373.8 298.772L374.281 299.928C375.739 303.397 377.246 306.986 375.002 310.865C374.267 312.135 373.041 313.965 371.62 316.082C368.909 320.125 363.264 328.538 364.044 329.984C364.618 331.046 366.723 334.664 368.951 338.497C371.11 342.207 373.356 346.066 374.349 347.845C376.573 351.824 375.537 357.175 374.707 361.476L374.494 362.58C373.551 367.597 368.561 393.283 362.776 406.338C362.641 406.631 362.356 406.803 362.057 406.803Z" fill="#8593B6"/>
<path d="M315.877 409.557C315.676 409.557 315.474 409.481 315.321 409.327C311.638 405.617 293.881 374.869 292.56 369.088C291.837 365.921 293.653 357.894 295.409 350.128C296.77 344.113 298.178 337.891 297.779 336.208C297.181 333.691 292.64 329.982 288.248 326.394C282.944 322.06 277.459 317.579 276.397 313.543C275.189 308.954 276.221 280.235 276.904 261.232C277.15 254.399 277.343 249.002 277.343 247.077C277.343 246.645 277.694 246.292 278.124 246.292C278.126 246.292 278.126 246.292 278.126 246.292C278.558 246.292 278.909 246.643 278.909 247.075C278.909 249.028 278.715 254.44 278.469 261.289C277.831 279.051 276.763 308.778 277.91 313.145C278.843 316.688 284.366 321.2 289.238 325.182C294.042 329.107 298.579 332.814 299.301 335.848C299.785 337.884 298.465 343.718 296.936 350.475C295.298 357.715 293.442 365.919 294.086 368.74C295.383 374.408 312.816 404.581 316.433 408.225C316.737 408.532 316.735 409.028 316.428 409.332C316.276 409.481 316.077 409.557 315.877 409.557Z" fill="#8593B6"/>
<path d="M252.203 396.11C252.167 396.11 252.13 396.107 252.093 396.102C251.666 396.041 251.367 395.645 251.428 395.217C252.003 391.144 260.991 310.015 261.405 303.8C261.434 303.368 261.806 303.029 262.238 303.07C262.669 303.1 262.996 303.473 262.968 303.903C262.554 310.127 253.555 391.358 252.978 395.437C252.922 395.828 252.587 396.11 252.203 396.11Z" fill="#8593B6"/>
<path d="M316.688 418.146C316.589 418.146 316.491 418.128 316.394 418.09C314.403 417.282 305.601 414.314 294.46 410.556C271.972 402.971 241.172 392.585 235.316 389.542C234.933 389.343 234.784 388.87 234.983 388.487C235.182 388.101 235.653 387.948 236.038 388.153C241.788 391.14 273.788 401.931 294.961 409.07C306.129 412.837 314.95 415.811 316.984 416.635C317.385 416.798 317.578 417.255 317.415 417.654C317.29 417.96 316.997 418.146 316.688 418.146Z" fill="#8593B6"/>
<path d="M305.875 450.452C286.083 450.452 247.713 446.884 218.566 436.575C218.157 436.429 217.944 435.983 218.088 435.574C218.231 435.167 218.683 434.954 219.087 435.096C255.909 448.121 307.419 450.345 317.003 448.193C317.426 448.102 317.844 448.365 317.938 448.787C318.032 449.21 317.767 449.628 317.346 449.723C315.272 450.188 311.261 450.452 305.875 450.452Z" fill="#8593B6"/>
<path d="M79.3474 255.898C85.4918 261.303 93.2743 264.768 98.6653 271.015C100.788 273.474 102.694 276.091 104.662 278.669C106.095 280.546 109.922 283.658 110.544 286.017C110.818 287.055 110.76 285.648 110.484 284.607C110.473 284.563 110.45 284.521 110.437 284.477C109.9 279.701 109.513 274.907 109.347 270.104C109.179 265.314 109.479 260.503 109.178 255.719C108.755 248.971 106.648 242.436 101.132 238.209C98.4366 236.143 94.9706 234.885 92.4928 232.591C90.1403 230.414 91.0832 227.92 92.4677 225.493C93.7614 223.222 95.3308 220.988 95.8351 218.373C96.4084 215.4 95.2901 212.335 93.7834 209.802C90.5742 204.416 83.4572 198.408 76.7177 199.213C71.0966 199.885 70.4591 206.369 70.5405 210.886C70.6189 215.278 71.0527 219.655 71.095 224.05C71.1388 228.564 70.3714 232.993 70.3072 237.487C70.1975 245.13 73.7294 250.957 79.3474 255.898Z" fill="#FF5B19"/>
<path d="M136.437 326.037C138.147 321.956 140.109 318.141 142.523 314.432C145.834 309.341 149.507 304.38 151.729 298.681C154 292.861 153.667 286.635 153.891 280.506C154.055 276.002 155.393 271.511 155.032 266.994C154.86 264.828 153.612 261.325 150.81 261.683C148.63 261.962 147.334 264.665 146.496 266.391C145.034 269.4 144.02 272.612 142.935 275.77C142.51 277.004 142.106 278.262 141.571 279.455C141.259 280.149 140.268 281.842 139.331 281.61C137.74 281.217 139.184 274.717 139.422 273.566C140.612 267.784 142.401 262.41 142.65 256.46C143.01 247.833 142.34 237.563 133.901 232.846C131.696 231.613 128.901 230.879 126.806 232.722C124.738 234.542 124.154 237.695 123.847 240.29C122.904 248.258 124.781 255.802 127.334 263.298C129.442 269.488 131.954 275.875 132.137 282.494C132.314 288.865 128.999 294.511 127.443 300.529C124.964 310.122 125.476 315.206 125.465 318.313C125.449 322.204 125.59 326.054 125.875 329.935C126.137 333.501 126.446 337.069 126.883 340.618C126.97 341.337 127.052 342.086 127.149 342.837C125.778 339.536 125.299 335.757 124.164 332.441C122.146 326.547 119.805 320.774 117.869 314.851C116.27 309.958 114.758 305.027 112.647 300.324C110.666 295.91 108.274 291.244 104.579 288.004C102.346 286.046 99.6396 284.901 96.6528 284.925C94.742 284.939 93.0254 285.601 91.2007 286.084C88.9563 286.676 87.1896 286.472 85.3415 285.053C79.2943 280.404 77.4555 272.071 72.9777 266.185C69.6385 261.795 61.7165 254.311 55.8901 259.097C52.8 261.636 51.9479 266.545 52.1108 270.305C52.3144 275.024 54.3771 279.343 56.833 283.288C59.4455 287.485 62.8176 291.243 65.2186 295.556C66.6376 298.104 66.86 300.548 66.6345 303.423C66.423 306.131 66.1865 308.753 67.109 311.366C69.8812 319.212 78.5378 318.118 85.2694 318.323C89.9806 318.465 95.0349 319.167 99.5064 320.674C104.675 322.415 108.038 325.778 109.886 330.892C111.223 334.591 111.938 338.793 114.456 341.937C115.64 343.415 117.208 344.507 118.931 345.268C121.557 346.429 129.561 346.935 129.62 346.203C129.819 343.755 130.98 341.173 131.707 338.85C133.069 334.493 134.671 330.245 136.437 326.037Z" fill="#FF5B19"/>
<path d="M173.605 324.558C172.909 320.072 173.042 315.128 170.919 311.009C170.767 310.714 170.364 310.639 170.092 310.791C168.569 311.635 168.507 314.094 168.381 315.601C168.176 318.1 168.328 320.606 168.021 323.098C167.481 327.477 166.469 331.991 164.892 336.12C163.108 340.789 159.861 343.437 155.147 344.896C152.116 345.832 149.146 346.647 146.617 348.658C144.354 350.457 142.781 352.94 141.614 355.555C138.466 362.613 136.967 370.503 135.509 378.045C134.527 383.122 133.725 388.224 132.493 393.25C131.26 398.273 129.938 403.272 129.23 408.404C129.111 408.663 128.984 408.92 128.875 409.181C128.552 409.949 129.752 410.364 130.167 409.726C135.033 402.235 140.961 395.511 149.049 391.386C152.702 389.522 157.554 389.137 160.6 386.208C162.918 383.981 163.238 380.584 162.89 377.555C162.434 373.575 160.527 370.298 158.541 366.907C157.449 365.045 156.16 363.048 156.6 360.785C157.015 358.649 158.791 357.079 160.553 355.984C163.914 353.897 167.847 352.958 170.601 349.948C173.158 347.152 174.576 343.675 174.859 339.91C175.237 334.894 174.372 329.514 173.605 324.558Z" fill="#FF5B19"/>
<path d="M107.249 350.421C102.955 344.889 97.7719 340.119 91.9393 336.245C88.8287 334.18 81.4863 330.101 80.0046 336.198C79.1369 339.771 82.6327 343.286 84.9335 345.525C88.3918 348.891 92.3919 351.795 95.3098 355.673C91.6965 356.826 87.9219 357.05 84.7832 359.548C81.0665 362.505 79.4 368.215 83.0854 371.84C84.8803 373.605 87.2625 374.688 89.4975 375.771C92.4044 377.177 95.3646 378.454 98.3451 379.699C104.779 382.386 111.293 385.113 116.781 389.514C122.373 394.002 127.629 401.587 128.074 408.906C128.116 409.603 127.851 408.967 128.268 408.649C128.495 408.853 129.262 408.486 129.258 408.079C129.143 397.217 127.192 386.875 122.753 376.928C118.64 367.705 113.451 358.411 107.249 350.421Z" fill="#FF5B19"/>
<path d="M92.4168 249.316C94.7865 254.232 97.2643 259.036 99.894 263.83C102.425 268.446 104.954 273.025 106.848 277.951C109.18 284.014 111.625 289.988 114.09 295.997C116.653 302.243 118.944 308.607 120.781 315.105C124.368 327.789 127.032 340.845 128.349 353.965C129.02 360.635 129.323 367.347 129.14 374.05C128.996 379.288 128.406 384.47 127.914 389.681C127.402 395.103 127.032 400.59 127.486 406.031C127.865 410.579 128.589 415.986 132.118 419.231C132.808 419.867 133.787 419.075 133.386 418.252C129.192 409.651 129.427 400.274 130.229 390.945C130.672 385.797 131.286 380.674 131.46 375.505C131.681 368.929 131.422 362.34 130.803 355.79C129.587 342.915 127.019 330.193 123.69 317.707C121.981 311.304 119.87 305.027 117.434 298.863C114.994 292.688 112.176 286.68 109.811 280.473C105.534 269.248 99.0169 259.296 93.2453 248.833C92.9399 248.29 92.1521 248.768 92.4168 249.316Z" fill="#43588E"/>
<path d="M128.539 341.103C129.217 332.927 129.943 325.057 132.698 317.259C133.983 313.622 135.54 310.086 136.781 306.435C137.805 303.418 139.338 299.279 138.551 296.071C138.463 295.712 137.941 295.731 137.843 296.071C137.315 297.903 137.373 299.911 136.992 301.791C136.623 303.619 136.128 305.417 135.559 307.191C134.35 310.969 132.77 314.59 131.401 318.307C128.755 325.491 127.397 333.447 127.975 341.102C128.004 341.466 128.509 341.465 128.539 341.103Z" fill="#43588E"/>
<path d="M81.1691 294.127C84.4144 301.966 94.1673 302.417 101.272 304.172C106.345 305.425 110.09 308.812 112.78 313.205C115.723 318.012 117.716 323.655 119.352 329.021C119.371 329.082 119.459 329.057 119.446 328.994C117.459 319.598 114.611 308.285 104.927 303.914C97.1666 300.41 86.9391 302.169 81.9742 293.787C81.7298 293.375 80.9718 293.652 81.1691 294.127Z" fill="#43588E"/>
<path d="M123.41 339.862C123.796 340.383 124.15 340.927 124.549 341.439C124.746 341.691 124.947 341.931 125.196 342.134C125.451 342.343 125.749 342.601 126.098 342.595C126.244 342.592 126.347 342.43 126.267 342.3C126.108 342.039 125.818 341.882 125.591 341.682C125.359 341.476 125.121 341.276 124.895 341.061C124.443 340.632 124.026 340.166 123.583 339.727C123.498 339.644 123.334 339.758 123.41 339.862Z" fill="#43588E"/>
<path d="M103.12 364.73C108.716 369.326 113.88 374.762 117.982 380.717C119.943 383.564 121.753 386.578 123.395 389.621C125.188 392.943 126.364 396.456 127.769 399.941C127.876 400.205 128.358 400.212 128.322 399.865C127.545 392.495 122.875 386.175 119.136 380.042C117.194 376.856 114.779 374.287 112.182 371.631C109.499 368.887 106.768 366.292 103.623 364.077C103.241 363.808 102.754 364.43 103.12 364.73Z" fill="#43588E"/>
<path d="M147.688 356.051C144.993 357.578 144.905 361.837 144.852 364.556C144.75 369.779 146.044 374.685 143.751 379.664C141.68 384.159 138.372 387.913 135.771 392.089C133.335 395.996 130.934 400.994 130.989 405.698C130.992 405.97 131.409 406.122 131.536 405.846C132.516 403.71 132.869 401.284 133.57 399.046C134.36 396.529 135.464 394.244 136.891 392.031C139.394 388.153 142.467 384.623 144.496 380.452C146.636 376.057 146.323 371.703 146.182 366.938C146.091 363.901 145.787 359.021 148.237 356.762C148.622 356.408 148.13 355.801 147.688 356.051Z" fill="#43588E"/>
<path d="M129.662 406.182C118.803 406.031 98.1211 405.912 98.1211 405.912L103.24 443.912C104.391 452.461 111.688 458.841 120.315 458.841H129.233H130.096H139.014C147.641 458.841 154.936 452.462 156.089 443.912L161.207 405.912C161.204 405.912 140.52 406.031 129.662 406.182Z" fill="white"/>
<path d="M654.51 336.352L592.563 459.058L411.961 460.353L467.697 334.624L654.51 336.352Z" fill="#F6F7FA"/>
<path d="M292.098 459.591L292.132 449.769H409.045L462.837 331.817H649.812L654.51 336.354H471.855L415.957 459.492C415.957 459.491 292.098 459.267 292.098 459.591Z" fill="#D9DEE8"/>
<path d="M560.729 404.063C558.688 410.184 547.615 414.909 535.995 414.62C524.375 414.33 516.61 409.131 518.649 403.011C520.689 396.89 531.763 392.165 543.383 392.454C555.003 392.746 562.77 397.942 560.729 404.063Z" fill="#D9DEE8"/>
<path d="M415.959 460.272C415.851 460.272 415.739 460.249 415.634 460.202C415.241 460.023 415.067 459.56 415.246 459.165L471.351 335.568H654.511C654.943 335.568 655.294 335.918 655.294 336.351C655.294 336.783 654.943 337.134 654.511 337.134H472.36L416.67 459.813C416.541 460.102 416.255 460.272 415.959 460.272Z" fill="white"/>
<path d="M283.964 468.886H69.1211V516.52H283.964V468.886Z" fill="#596B9B"/>
<path d="M669.28 468.886H282.736V516.52H669.28V468.886Z" fill="#7A89AF"/>
<path d="M283.964 468.886H282.736H69.1211V477.635H282.736H283.964H669.279V468.886H283.964Z" fill="#BDC4D7"/>
<path d="M293.36 459.489H58.75V471.154H293.36V459.489Z" fill="#6F7FA9"/>
<path d="M678.676 459.489H292.133V471.154H678.676V459.489Z" fill="#9CA6C3"/>
<path d="M229.72 209.565H153.877C149.183 209.565 145.379 205.761 145.379 201.067V163.205C145.379 158.511 149.183 154.706 153.877 154.706H229.72C234.414 154.706 238.219 158.511 238.219 163.205V201.067C238.219 205.761 234.413 209.565 229.72 209.565Z" fill="white"/>
<path d="M259.833 182.135L231.348 170.114V194.154L259.833 182.135Z" fill="white"/>
<path d="M173.805 187.383C176.703 187.383 179.052 185.033 179.052 182.136C179.052 179.238 176.703 176.889 173.805 176.889C170.908 176.889 168.559 179.238 168.559 182.136C168.559 185.033 170.908 187.383 173.805 187.383Z" fill="#8627A8"/>
<path d="M191.798 187.383C194.695 187.383 197.045 185.033 197.045 182.136C197.045 179.238 194.695 176.889 191.798 176.889C188.9 176.889 186.551 179.238 186.551 182.136C186.551 185.033 188.9 187.383 191.798 187.383Z" fill="#8627A8"/>
<path d="M209.79 187.383C212.688 187.383 215.037 185.033 215.037 182.136C215.037 179.238 212.688 176.889 209.79 176.889C206.892 176.889 204.543 179.238 204.543 182.136C204.543 185.033 206.892 187.383 209.79 187.383Z" fill="#8627A8"/>
<path d="M615.841 38.2267H440.748C429.502 38.2267 420.387 47.3422 420.387 58.5877V141.653C420.387 152.898 429.502 162.014 440.748 162.014H456.441C456.881 169.544 455.804 180.744 449.517 195.066C469.745 185.734 481.394 171.723 487.479 162.014H615.843C627.088 162.014 636.204 152.898 636.204 141.653V58.5877C636.202 47.3422 627.087 38.2267 615.841 38.2267Z" fill="#60A8FF"/>
<path d="M541.148 77.8145H454.304C451.918 77.8145 449.982 75.8802 449.982 73.4933C449.982 71.1064 451.917 69.1721 454.304 69.1721H541.148C543.535 69.1721 545.469 71.1064 545.469 73.4933C545.469 75.8802 543.535 77.8145 541.148 77.8145Z" fill="white"/>
<path d="M603.419 102.982H452.629C451.168 102.982 449.982 101.796 449.982 100.335C449.982 98.8733 451.168 97.6877 452.629 97.6877H603.419C604.881 97.6877 606.066 98.8733 606.066 100.335C606.066 101.797 604.881 102.982 603.419 102.982Z" fill="#D2E6FF"/>
<path d="M603.419 117.672H452.629C451.168 117.672 449.982 116.488 449.982 115.025C449.982 113.564 451.168 112.378 452.629 112.378H603.419C604.881 112.378 606.066 113.564 606.066 115.025C606.066 116.488 604.881 117.672 603.419 117.672Z" fill="#D2E6FF"/>
<path d="M570.525 133.334H452.627C451.166 133.334 449.98 132.148 449.98 130.687C449.98 129.226 451.166 128.04 452.627 128.04H570.525C571.987 128.04 573.172 129.226 573.172 130.687C573.172 132.15 571.988 133.334 570.525 133.334Z" fill="#D2E6FF"/>
<path d="M602.236 77.8145H560.808C558.422 77.8145 556.486 75.8802 556.486 73.4933C556.486 71.1064 558.421 69.1721 560.808 69.1721H602.236C604.621 69.1721 606.557 71.1064 606.557 73.4933C606.556 75.8802 604.621 77.8145 602.236 77.8145Z" fill="white"/>
<path d="M497.819 268.84H450.779C449.048 268.84 447.646 267.438 447.646 265.707V233.573C447.646 231.842 449.048 230.441 450.779 230.441H497.819C499.55 230.441 500.952 231.842 500.952 233.573V265.707C500.952 267.437 499.55 268.84 497.819 268.84Z" fill="white"/>
<path d="M474.626 255.378C474.361 255.378 474.095 255.289 473.877 255.108L448.276 233.963C447.776 233.549 447.706 232.81 448.118 232.309C448.534 231.808 449.274 231.74 449.772 232.151L474.604 252.66L498.804 231.603C499.291 231.178 500.035 231.228 500.461 231.718C500.887 232.209 500.835 232.949 500.347 233.375L475.395 255.087C475.176 255.281 474.9 255.378 474.626 255.378Z" fill="#6F7FA9"/>
<path d="M449.023 267.964C448.732 267.964 448.441 267.857 448.214 267.639C447.742 267.192 447.724 266.449 448.173 265.978L466.078 247.155C466.521 246.685 467.27 246.665 467.738 247.114C468.21 247.562 468.229 248.304 467.779 248.776L449.874 267.599C449.644 267.841 449.334 267.964 449.023 267.964Z" fill="#6F7FA9"/>
<path d="M499.574 267.275C499.273 267.275 498.971 267.16 498.742 266.93L480.909 249.048C480.452 248.588 480.452 247.844 480.912 247.387C481.373 246.928 482.115 246.929 482.572 247.388L500.405 265.27C500.863 265.73 500.863 266.474 500.402 266.932C500.174 267.162 499.875 267.275 499.574 267.275Z" fill="#6F7FA9"/>
<path d="M503.395 244.967C512.075 244.967 519.111 237.931 519.111 229.252C519.111 220.572 512.075 213.536 503.395 213.536C494.716 213.536 487.68 220.572 487.68 229.252C487.68 237.931 494.716 244.967 503.395 244.967Z" fill="#FF5F42"/>
<path d="M498.686 226.582C498.686 225.862 498.23 225.154 497.486 224.71C497.954 224.458 498.47 223.978 498.47 223.102C498.47 221.758 497.33 220.69 495.878 220.69C494.426 220.69 493.274 221.758 493.274 223.102C493.274 223.894 493.73 224.422 494.234 224.71C493.634 225.082 493.07 225.67 493.07 226.582C493.07 227.962 494.318 229.09 495.878 229.09C497.438 229.09 498.686 227.962 498.686 226.582ZM494.714 223.126C494.714 222.49 495.206 222.01 495.878 222.01C496.538 222.01 497.03 222.49 497.03 223.126C497.03 223.774 496.538 224.254 495.878 224.254C495.206 224.254 494.714 223.774 494.714 223.126ZM495.878 227.77C495.11 227.77 494.51 227.23 494.51 226.558C494.51 225.874 495.11 225.334 495.878 225.334C496.646 225.334 497.246 225.874 497.246 226.558C497.246 227.23 496.646 227.77 495.878 227.77ZM502.212 229.21C503.976 229.21 505.512 227.89 505.512 226.234C505.512 224.65 504.312 223.45 502.704 223.45C502.272 223.45 501.768 223.582 501.468 223.75L501.696 222.01H504.672C505.056 222.01 505.344 221.734 505.344 221.362C505.344 220.978 505.056 220.69 504.672 220.69H501.204C500.832 220.69 500.544 220.93 500.484 221.266L500.112 224.242C500.052 224.626 500.172 225.262 500.964 225.262C501.42 225.262 501.816 224.77 502.572 224.77C503.364 224.77 504.072 225.334 504.072 226.234C504.072 227.134 503.196 227.902 502.2 227.902C501.876 227.902 501.564 227.746 501.312 227.59C501.108 227.446 500.916 227.362 500.772 227.362C500.34 227.362 500.1 227.662 500.1 227.926C500.1 228.178 500.232 228.502 500.436 228.67C500.868 229.018 501.612 229.21 502.212 229.21Z" fill="white"/>
<path d="M661.247 223.469H569.433C565.973 223.469 563.168 220.664 563.168 217.204V202.838C563.168 199.379 565.973 196.573 569.433 196.573H661.247C664.707 196.573 667.512 199.379 667.512 202.838V217.204C667.512 220.664 664.707 223.469 661.247 223.469Z" fill="#8627A8"/>
<path d="M576.062 217.072C575.65 217.072 575.32 216.925 575.071 216.632C574.82 216.339 574.709 215.971 574.74 215.531L575.138 212.05C575.166 211.962 575.152 211.902 575.094 211.873C575.035 211.843 574.961 211.858 574.873 211.916L572.009 213.989C571.656 214.253 571.288 214.349 570.906 214.275C570.524 214.203 570.215 213.974 569.98 213.592C569.716 213.122 569.666 212.71 569.825 212.358C569.987 212.006 570.259 211.757 570.641 211.609L573.86 210.154C573.948 210.125 573.993 210.081 573.993 210.021C573.993 209.963 573.949 209.919 573.86 209.888L570.641 208.433C570.229 208.256 569.965 207.979 569.849 207.595C569.733 207.213 569.777 206.831 569.982 206.449C570.217 206.067 570.525 205.839 570.908 205.766C571.29 205.694 571.656 205.774 572.01 206.009L574.875 208.125C574.963 208.184 575.036 208.198 575.096 208.168C575.154 208.139 575.168 208.081 575.14 207.991L574.742 204.51C574.712 204.07 574.829 203.702 575.094 203.407C575.359 203.114 575.711 202.967 576.153 202.967C576.565 202.967 576.902 203.114 577.166 203.407C577.431 203.702 577.534 204.068 577.473 204.51L577.077 207.991C577.047 208.079 577.061 208.139 577.121 208.168C577.179 208.198 577.254 208.184 577.342 208.125L580.206 206.052C580.559 205.788 580.933 205.692 581.331 205.766C581.727 205.839 582.028 206.068 582.235 206.449C582.498 206.92 582.549 207.33 582.388 207.683C582.227 208.035 581.954 208.284 581.574 208.432L578.357 209.887C578.269 209.916 578.223 209.96 578.223 210.02C578.223 210.079 578.267 210.123 578.357 210.153L581.574 211.608C581.986 211.783 582.258 212.064 582.388 212.446C582.521 212.828 582.469 213.21 582.235 213.592C582.028 213.974 581.727 214.203 581.331 214.275C580.933 214.349 580.559 214.267 580.206 214.034L577.342 211.918C577.254 211.86 577.179 211.844 577.121 211.874C577.061 211.904 577.047 211.962 577.077 212.051L577.473 215.533C577.533 215.973 577.423 216.341 577.144 216.634C576.861 216.925 576.502 217.072 576.062 217.072Z" fill="white"/>
<path d="M595.048 217.072C594.636 217.072 594.306 216.925 594.057 216.632C593.806 216.339 593.697 215.971 593.726 215.531L594.124 212.05C594.152 211.962 594.138 211.902 594.08 211.873C594.021 211.843 593.947 211.858 593.86 211.916L590.995 213.989C590.643 214.253 590.275 214.349 589.892 214.275C589.51 214.203 589.202 213.974 588.967 213.592C588.702 213.122 588.652 212.71 588.812 212.358C588.973 212.006 589.245 211.757 589.628 211.609L592.846 210.154C592.934 210.125 592.978 210.081 592.978 210.021C592.978 209.963 592.934 209.919 592.846 209.888L589.628 208.433C589.216 208.256 588.951 207.979 588.835 207.595C588.719 207.213 588.763 206.831 588.968 206.449C589.203 206.067 589.512 205.839 589.894 205.766C590.276 205.694 590.643 205.774 590.997 206.009L593.861 208.125C593.949 208.184 594.022 208.198 594.082 208.168C594.14 208.139 594.154 208.081 594.126 207.991L593.728 204.51C593.698 204.07 593.816 203.702 594.08 203.407C594.345 203.114 594.698 202.967 595.139 202.967C595.551 202.967 595.888 203.114 596.153 203.407C596.417 203.702 596.519 204.068 596.46 204.51L596.063 207.991C596.034 208.079 596.048 208.139 596.107 208.168C596.165 208.198 596.24 208.184 596.328 208.125L599.193 206.052C599.543 205.788 599.919 205.692 600.317 205.766C600.713 205.839 601.014 206.068 601.221 206.449C601.484 206.92 601.536 207.33 601.374 207.683C601.213 208.035 600.941 208.284 600.56 208.432L597.343 209.887C597.255 209.916 597.21 209.96 597.21 210.02C597.21 210.079 597.254 210.123 597.343 210.153L600.56 211.608C600.972 211.783 601.244 212.064 601.374 212.446C601.507 212.828 601.456 213.21 601.221 213.592C601.014 213.974 600.713 214.203 600.317 214.275C599.919 214.349 599.545 214.267 599.193 214.034L596.328 211.918C596.24 211.86 596.165 211.844 596.107 211.874C596.048 211.904 596.034 211.962 596.063 212.051L596.46 215.533C596.519 215.973 596.409 216.341 596.131 216.634C595.849 216.925 595.488 217.072 595.048 217.072Z" fill="white"/>
<path d="M614.041 217.072C613.629 217.072 613.298 216.925 613.049 216.632C612.799 216.339 612.687 215.971 612.719 215.531L613.116 212.05C613.145 211.962 613.131 211.902 613.073 211.873C613.013 211.843 612.939 211.858 612.852 211.916L609.987 213.989C609.635 214.253 609.267 214.349 608.885 214.275C608.502 214.203 608.194 213.974 607.959 213.592C607.694 213.122 607.644 212.71 607.804 212.358C607.965 212.006 608.238 211.757 608.62 211.609L611.838 210.154C611.926 210.125 611.972 210.081 611.972 210.021C611.972 209.963 611.928 209.919 611.838 209.888L608.62 208.433C608.208 208.256 607.943 207.979 607.827 207.595C607.711 207.213 607.755 206.831 607.96 206.449C608.195 206.067 608.504 205.839 608.886 205.766C609.268 205.694 609.635 205.774 609.989 206.009L612.853 208.125C612.941 208.184 613.015 208.198 613.074 208.168C613.132 208.139 613.146 208.081 613.118 207.991L612.72 204.51C612.69 204.07 612.808 203.702 613.074 203.407C613.339 203.114 613.691 202.967 614.131 202.967C614.543 202.967 614.88 203.114 615.145 203.407C615.409 203.702 615.513 204.068 615.452 204.51L615.055 207.991C615.026 208.079 615.04 208.139 615.099 208.168C615.157 208.198 615.232 208.184 615.32 208.125L618.185 206.052C618.537 205.788 618.912 205.692 619.309 205.766C619.706 205.839 620.006 206.068 620.213 206.449C620.476 206.92 620.528 207.33 620.367 207.683C620.205 208.035 619.933 208.284 619.552 208.432L616.335 209.887C616.247 209.916 616.202 209.96 616.202 210.02C616.202 210.079 616.246 210.123 616.335 210.153L619.552 211.608C619.964 211.783 620.237 212.064 620.367 212.446C620.5 212.828 620.448 213.21 620.213 213.592C620.006 213.974 619.706 214.203 619.309 214.275C618.912 214.349 618.537 214.267 618.185 214.034L615.32 211.918C615.232 211.86 615.157 211.844 615.099 211.874C615.04 211.904 615.026 211.962 615.055 212.051L615.452 215.533C615.511 215.973 615.402 216.341 615.123 216.634C614.839 216.925 614.481 217.072 614.041 217.072Z" fill="white"/>
<path d="M633.031 217.073C632.619 217.073 632.288 216.925 632.039 216.632C631.789 216.34 631.679 215.971 631.709 215.531L632.107 212.05C632.135 211.962 632.121 211.902 632.063 211.873C632.003 211.843 631.93 211.859 631.842 211.917L628.977 213.989C628.625 214.253 628.257 214.349 627.875 214.275C627.493 214.203 627.184 213.975 626.949 213.592C626.684 213.123 626.634 212.711 626.794 212.358C626.955 212.006 627.228 211.757 627.61 211.61L630.829 210.155C630.916 210.125 630.962 210.081 630.962 210.021C630.962 209.963 630.918 209.92 630.829 209.888L627.61 208.433C627.198 208.256 626.933 207.979 626.818 207.595C626.702 207.213 626.746 206.831 626.951 206.449C627.186 206.067 627.494 205.84 627.876 205.766C628.259 205.694 628.625 205.774 628.979 206.009L631.844 208.125C631.931 208.184 632.005 208.198 632.064 208.169C632.122 208.139 632.136 208.081 632.108 207.992L631.71 204.51C631.681 204.07 631.798 203.702 632.063 203.407C632.328 203.114 632.68 202.967 633.122 202.967C633.534 202.967 633.87 203.114 634.135 203.407C634.4 203.702 634.503 204.068 634.442 204.51L634.046 207.992C634.016 208.079 634.03 208.139 634.09 208.169C634.147 208.198 634.223 208.184 634.31 208.125L637.175 206.053C637.526 205.788 637.902 205.692 638.3 205.766C638.696 205.84 638.997 206.068 639.203 206.449C639.466 206.92 639.518 207.331 639.357 207.683C639.195 208.035 638.923 208.284 638.542 208.432L635.325 209.887C635.238 209.916 635.192 209.96 635.192 210.02C635.192 210.079 635.236 210.123 635.325 210.153L638.542 211.608C638.954 211.783 639.227 212.064 639.357 212.446C639.49 212.828 639.438 213.21 639.203 213.592C638.997 213.975 638.696 214.203 638.3 214.275C637.902 214.349 637.527 214.267 637.175 214.034L634.31 211.918C634.223 211.86 634.147 211.844 634.09 211.874C634.03 211.904 634.016 211.962 634.046 212.051L634.442 215.533C634.501 215.973 634.392 216.341 634.113 216.634C633.83 216.925 633.471 217.073 633.031 217.073Z" fill="white"/>
<path d="M652.019 217.072C651.607 217.072 651.277 216.925 651.028 216.632C650.777 216.339 650.667 215.971 650.697 215.531L651.095 212.05C651.123 211.962 651.109 211.902 651.051 211.873C650.992 211.843 650.918 211.858 650.83 211.916L647.966 213.989C647.613 214.253 647.245 214.349 646.863 214.275C646.481 214.203 646.172 213.974 645.937 213.592C645.673 213.122 645.623 212.71 645.782 212.358C645.944 212.006 646.216 211.757 646.598 211.609L649.817 210.154C649.905 210.125 649.95 210.081 649.95 210.021C649.95 209.963 649.906 209.919 649.817 209.888L646.598 208.433C646.186 208.256 645.922 207.979 645.806 207.595C645.69 207.213 645.734 206.831 645.939 206.449C646.174 206.067 646.482 205.839 646.865 205.766C647.247 205.694 647.613 205.774 647.967 206.009L650.832 208.125C650.92 208.184 650.993 208.198 651.053 208.168C651.111 208.139 651.125 208.081 651.097 207.991L650.699 204.51C650.669 204.07 650.786 203.702 651.053 203.407C651.317 203.114 651.67 202.967 652.11 202.967C652.522 202.967 652.859 203.114 653.123 203.407C653.388 203.702 653.491 204.068 653.43 204.51L653.034 207.991C653.004 208.079 653.018 208.139 653.078 208.168C653.136 208.198 653.209 208.184 653.299 208.125L656.163 206.052C656.516 205.788 656.89 205.692 657.288 205.766C657.684 205.839 657.985 206.068 658.192 206.449C658.455 206.92 658.506 207.33 658.345 207.683C658.184 208.035 657.911 208.284 657.529 208.432L654.312 209.887C654.224 209.916 654.179 209.96 654.179 210.02C654.179 210.079 654.223 210.123 654.312 210.153L657.529 211.608C657.941 211.783 658.214 212.064 658.345 212.446C658.478 212.828 658.427 213.21 658.192 213.592C657.985 213.974 657.684 214.203 657.288 214.275C656.89 214.349 656.516 214.267 656.163 214.034L653.299 211.918C653.211 211.86 653.136 211.844 653.078 211.874C653.018 211.904 653.004 211.962 653.034 212.051L653.43 215.533C653.49 215.973 653.38 216.341 653.101 216.634C652.819 216.925 652.459 217.072 652.019 217.072Z" fill="#67ACFF"/>
</svg>
