<svg width="72" height="72" viewBox="0 0 72 72" fill="none" xmlns="http://www.w3.org/2000/svg">
<path d="M45.6331 32.0099C60.838 32.4943 72.0001 34.0972 72.0001 36C72.0001 37.9028 60.838 39.5057 45.6331 39.9901C56.042 51.0841 62.8014 60.1104 61.4559 61.4558C60.1105 62.8013 51.0842 56.0419 39.9902 45.633C39.5058 60.8379 37.9029 72 36.0001 72C34.0974 72 32.4944 60.8378 32.01 45.633C20.916 56.0419 11.8897 62.8013 10.5443 61.4558C9.19882 60.1104 15.9582 51.0841 26.3671 39.9901C11.1623 39.5057 0.00012207 37.9028 0.00012207 36C0.00012207 34.0972 11.1623 32.4943 26.3671 32.0099C15.9582 20.9159 9.1988 11.8896 10.5443 10.5442C11.8897 9.1987 20.916 15.9581 32.01 26.367C32.4944 11.1622 34.0974 0 36.0001 0C37.9029 0 39.5058 11.1621 39.9902 26.367C51.0842 15.9581 60.1105 9.19868 61.456 10.5441C62.8014 11.8896 56.042 20.9159 45.6331 32.0099Z" fill="#EAE0FF"/>
</svg>
